<svg width="58" height="52" viewBox="0 0 58 52" fill="none" xmlns="http://www.w3.org/2000/svg">
<path d="M41.2754 11.9515L34.2638 7.82709C33.8743 7.59795 33.7368 7.09385 33.9659 6.70432L34.9741 5.00871C35.2033 4.61917 35.7074 4.48169 36.0969 4.71083L43.1085 8.83529C43.498 9.06442 43.6355 9.56852 43.4064 9.95806L42.3982 11.6537C42.169 12.0432 41.6649 12.1807 41.2754 11.9515Z" fill="#1E549E"/>
<path d="M41.2667 11.9437L34.2698 7.84008L32.4382 10.963L39.4352 15.0666L41.2667 11.9437Z" fill="#EDE7E7"/>
<path d="M30.1854 28.6098L25.1215 25.631C24.5945 25.3102 24.4112 24.6457 24.732 24.0958L25.4423 22.9043C25.7631 22.3773 26.4276 22.194 26.9775 22.5148L32.0414 25.4935C32.5684 25.8143 32.7517 26.4788 32.4309 27.0288L31.7206 28.2203C31.3998 28.7473 30.7124 28.9306 30.1854 28.6098Z" fill="#EDE7E7"/>
<path d="M32.8893 26.0205L26.061 22.0106C25.3049 21.5753 25.0528 20.59 25.4882 19.8338L30.4146 11.4474C30.85 10.6913 31.8352 10.4392 32.5914 10.8746L39.4197 14.8845C40.1758 15.3198 40.4279 16.3051 39.9925 17.0613L35.0661 25.4477C34.6307 26.2038 33.6454 26.4559 32.8893 26.0205Z" fill="#EC359B"/>
<path d="M40.1299 10.7829L33.1183 6.65848C32.7288 6.42934 32.5913 5.92524 32.8204 5.53571L33.8286 3.8401C34.0578 3.45056 34.5619 3.31308 34.9514 3.54222L41.963 7.66668C42.3525 7.89581 42.49 8.39991 42.2608 8.78945L41.2526 10.4851C41.0235 10.8746 40.5194 11.0121 40.1299 10.7829Z" stroke="black" stroke-width="1.5" stroke-miterlimit="10"/>
<path d="M40.1239 10.7678L33.127 6.66423L31.2954 9.78715L38.2923 13.8907L40.1239 10.7678Z" stroke="black" stroke-width="1.5" stroke-miterlimit="10"/>
<path d="M29.0624 27.464L23.9984 24.4853C23.4714 24.1645 23.2881 23.5 23.6089 22.95L24.3192 21.7585C24.64 21.2315 25.3045 21.0482 25.8544 21.369L30.9184 24.3478C31.4454 24.6686 31.6287 25.3331 31.3079 25.883L30.5976 27.0745C30.2768 27.5786 29.5894 27.7619 29.0624 27.464Z" stroke="black" stroke-width="1.5" stroke-miterlimit="10"/>
<path d="M31.7662 24.8519L24.938 20.842C24.1818 20.4067 23.9298 19.4214 24.3651 18.6652L29.2916 10.2788C29.7269 9.52268 30.7122 9.27063 31.4684 9.70599L38.2966 13.7159C39.0528 14.1512 39.3048 15.1365 38.8695 15.8927L33.943 24.2791C33.4848 25.0352 32.5224 25.2873 31.7662 24.8519Z" stroke="black" stroke-width="1.5" stroke-miterlimit="10"/>
<path d="M45.3998 44.4431V47.4218H14.3289V44.4431C14.3289 43.2516 15.2912 42.2892 16.4827 42.2892H21.1113V42.3121H28.6728V42.2892H43.2459C44.4374 42.2892 45.3998 43.2516 45.3998 44.4431Z" fill="#1E549E"/>
<path d="M28.6728 42.2892H21.1113V42.3121H28.6728V42.2892Z" fill="black"/>
<path d="M28.6728 37.5461H21.1113V42.2892H28.6728V37.5461Z" fill="#EDE7E7"/>
<path d="M28.6728 42.2892H21.1113V42.3121H28.6728V42.2892Z" fill="black"/>
<path d="M33.1641 35.8734C33.1641 36.3317 32.9808 36.767 32.6829 37.0649C32.5454 37.2024 32.408 37.2941 32.2476 37.3857C32.0184 37.5003 31.7664 37.569 31.5143 37.569H17.8807C16.9642 37.569 16.208 36.8129 16.208 35.8963C16.208 35.4381 16.3913 35.0256 16.6892 34.7048C16.9871 34.4069 17.3995 34.2236 17.8807 34.2236H31.4914C31.5602 34.2236 31.6289 34.2236 31.6976 34.2236C32.5225 34.2924 33.1641 35.0027 33.1641 35.8734Z" fill="#EC359B"/>
<path d="M31.629 37.3628C31.7894 37.294 31.9498 37.1795 32.0644 37.042C32.3622 36.7441 32.5455 36.3316 32.5455 35.8505C32.5455 35.0027 31.904 34.2923 31.0562 34.2007C38.5947 32.3676 37.6095 26.1122 37.472 25.4477C38.8468 25.3789 40.0154 24.554 40.5653 23.3625C40.7715 23.8208 44.4377 34.5902 31.629 37.3628Z" fill="#EDE7E7"/>
<path d="M41.5734 21.7815C41.5734 22.3543 41.4359 22.8813 41.2297 23.3396C40.6568 24.5082 39.5111 25.356 38.1363 25.4248C38.0676 25.4248 37.9988 25.4248 37.9301 25.4248C35.9137 25.4248 34.2639 23.775 34.2639 21.7586C34.2639 19.7422 35.8908 18.0924 37.9301 18.0924C39.9236 18.1382 41.5734 19.7651 41.5734 21.7815Z" fill="#1E549E"/>
<path d="M44.0709 45.9783H13V42.9995C13 41.808 13.9624 40.8457 15.1539 40.8457H41.917C43.1085 40.8457 44.0709 41.808 44.0709 42.9995V45.9783Z" stroke="black" stroke-width="1.5" stroke-miterlimit="10"/>
<path d="M27.321 36.0796H19.7595V40.8456H27.321V36.0796Z" stroke="black" stroke-width="1.5" stroke-miterlimit="10"/>
<path d="M30.1394 36.0796H16.5516C15.6351 36.0796 14.8789 35.3234 14.8789 34.4069C14.8789 33.4903 15.6351 32.7342 16.5516 32.7342H30.1623C31.0789 32.7342 31.835 33.4903 31.835 34.4069C31.8121 35.3463 31.0789 36.0796 30.1394 36.0796Z" stroke="black" stroke-width="1.5" stroke-miterlimit="10"/>
<path d="M37.0363 23.7062C37.0363 23.7062 38.9152 30.8553 30.8496 32.7342" stroke="black" stroke-width="1.5" stroke-miterlimit="10"/>
<path d="M39.8546 21.8961C39.8546 21.8961 44.0478 33.1008 30.8267 35.8734" stroke="black" stroke-width="1.5" stroke-miterlimit="10"/>
<path d="M36.5553 24.0041C38.5801 24.0041 40.2215 22.3627 40.2215 20.3379C40.2215 18.3131 38.5801 16.6717 36.5553 16.6717C34.5306 16.6717 32.8892 18.3131 32.8892 20.3379C32.8892 22.3627 34.5306 24.0041 36.5553 24.0041Z" stroke="black" stroke-width="1.5" stroke-miterlimit="10"/>
</svg>
