<svg width="58" height="52" viewBox="0 0 58 52" fill="none" xmlns="http://www.w3.org/2000/svg">
<path d="M13.5137 42.1162V24.9339C13.5137 23.639 14.016 22.3946 14.915 21.4626L25.8329 10.1443C27.7641 8.14222 30.9581 8.10127 32.94 10.0532L44.5086 21.4465C45.4628 22.3862 46.0001 23.6696 46.0001 25.0089V42.1162C46.0001 44.8776 43.7615 47.1162 41.0001 47.1162H18.5137C15.7522 47.1162 13.5137 44.8776 13.5137 42.1162Z" fill="#D84495"/>
<path d="M11.0769 40.0858V23.1234C11.0769 21.8417 11.5691 20.6089 12.4519 19.6797L22.9748 8.60295C24.9113 6.56453 28.1472 6.52305 30.1353 8.51116L41.2867 19.6626C42.2244 20.6002 42.7512 21.872 42.7512 23.1981V40.0858C42.7512 42.8472 40.5126 45.0858 37.7512 45.0858H16.0769C13.3155 45.0858 11.0769 42.8472 11.0769 40.0858Z" stroke="black" stroke-width="1.5" stroke-linejoin="round"/>
<circle cx="29.3505" cy="32.0912" r="7.71553" fill="black" fill-opacity="0.34"/>
<circle cx="27.3201" cy="30.873" r="8.12161" fill="#235694"/>
<rect x="26.1018" y="26.8122" width="2.43648" height="8.12161" rx="1.21824" fill="white"/>
<rect x="23.2593" y="32.0912" width="2.43648" height="8.12161" rx="1.21824" transform="rotate(-90 23.2593 32.0912)" fill="white"/>
</svg>
