<svg width="58" height="52" viewBox="0 0 58 52" fill="none" xmlns="http://www.w3.org/2000/svg">
<path d="M44.3681 40.8948C43.0896 41.0481 41.3913 40.4923 39.9029 41.2589C37.8039 42.3321 35.5141 42.6579 33.2624 42.6771C30.2284 42.7154 27.2707 42.0446 24.5611 40.5307C20.2677 38.1351 17.2909 34.6472 15.8788 29.9328C12.7876 19.6991 18.9319 9.23535 29.446 6.97396C39.1396 4.90422 48.6424 11.2859 50.5887 20.8298C51.3711 24.6051 51.0467 28.2655 49.5392 31.8109C49.3293 32.3283 49.2148 32.8266 49.2339 33.3824C49.253 35.4905 49.1958 37.5985 49.2721 39.7066C49.3103 40.684 48.8905 40.914 48.0318 40.8948C46.9059 40.8565 45.7992 40.8948 44.3681 40.8948ZM32.2702 34.6089C32.2702 35.1838 32.2702 35.7588 32.2702 36.3337C32.2702 38.4801 32.2702 38.5184 34.3501 38.3651C37.3459 38.1351 40.0174 37.0044 42.1927 34.973C45.7801 31.6193 47.3067 27.4606 46.5815 22.5162C45.4176 14.5439 37.365 8.98621 29.0262 11.4967C20.7638 13.9881 16.8902 23.4169 20.9165 31.0827C21.4317 32.0409 22.0041 32.8841 21.8133 34.1106C21.6606 35.1263 22.8246 36.0654 23.8741 36.0271C24.9236 36.0079 25.9159 34.9922 25.935 33.919C25.9541 32.8841 25.1335 31.8876 24.084 31.8684C23.2826 31.8684 22.8628 31.4659 22.5193 30.8527C21.0119 28.1889 20.4203 25.3525 21.0691 22.3246C22.3667 16.1153 27.8432 11.4776 34.9798 12.5508C42.4217 13.6815 46.9441 21.1364 44.6924 28.1889C43.1277 33.0374 39.7121 35.8929 34.5981 36.6595C33.7776 36.7936 33.7776 36.5445 33.7776 35.9504C33.7967 34.5706 33.8158 33.2099 33.7585 31.8301C33.7395 31.1402 33.9303 30.8527 34.6172 30.661C36.43 30.1436 37.7085 28.9746 38.4527 27.2306C39.1015 25.6783 38.9106 24.0302 38.9297 22.4204C38.9488 20.0823 38.6244 19.6607 36.4491 18.8942C35.9148 18.7025 35.495 18.875 35.1897 19.2583C34.8844 19.6416 34.8653 20.0823 35.1897 20.4848C35.495 20.8873 35.8957 21.1939 36.4109 20.9447C37.1742 20.5806 37.3841 20.9256 37.4032 21.5963C37.4223 22.7845 37.4795 23.9727 37.4032 25.1417C37.1933 27.8631 34.9989 29.4729 32.7854 29.3387C31.0871 29.2429 28.7209 27.6523 28.7973 25.0459C28.8354 23.896 28.8163 22.7462 28.8163 21.5963C28.8163 20.9447 28.9308 20.4848 29.7323 20.9256C30.1712 21.1747 30.5528 20.9447 30.8581 20.6573C31.1825 20.3507 31.2397 19.9099 31.0871 19.5074C30.9344 19.0666 30.5528 18.8558 30.133 18.7983C28.8354 18.645 27.3089 19.9674 27.2898 21.2897C27.2707 22.5737 27.2516 23.8386 27.2898 25.1226C27.3661 27.9206 28.9118 29.8945 31.6214 30.661C32.1557 30.8144 32.3083 31.0827 32.2892 31.6001C32.232 32.635 32.2702 33.6315 32.2702 34.6089Z" fill="#EC359B"/>
<path d="M15.4016 15.6554C14.5811 17.3994 14.0086 19.2008 13.7224 21.0406C13.4171 22.9378 13.2835 24.8543 13.5125 26.809C13.7987 29.2237 14.5047 31.466 15.5161 33.6124C16.3366 35.3563 17.5006 36.8895 18.7791 38.346C20.3056 40.0707 22.1947 41.2973 24.1983 42.3513C25.6104 43.0987 27.156 43.5586 28.7016 43.9036C28.9306 43.9611 29.2932 43.9036 29.2932 44.2102C29.2932 44.4594 28.9688 44.5552 28.7398 44.6702C25.4386 46.2033 22.0039 46.6058 18.4356 45.82C17.9204 45.7051 17.3289 45.5901 16.9281 45.3793C15.2108 44.4019 13.3598 44.7277 11.5471 44.6702C10.4594 44.651 9.3908 44.651 8.30314 44.651C7.73068 44.651 7.44445 44.4402 7.48262 43.8078C7.53986 42.4663 7.38721 41.1248 7.53986 39.7833C7.74976 37.8477 7.13914 36.1229 6.60485 34.3598C5.93699 32.175 5.84158 29.952 6.22322 27.6906C6.73843 24.5477 8.11232 21.8455 10.1541 19.4308C11.5471 17.7252 13.3217 16.5178 15.4016 15.6554Z" fill="#1E549E"/>
<path d="M32.2699 34.6089C32.2699 33.6123 32.2317 32.635 32.289 31.6384C32.3081 31.1018 32.1554 30.8527 31.6211 30.6994C28.9115 29.9328 27.3659 27.9589 27.2895 25.1609C27.2514 23.8769 27.2514 22.612 27.2895 21.328C27.3086 20.0057 28.8352 18.6833 30.1327 18.8367C30.5525 18.8942 30.9342 19.105 31.0868 19.5457C31.2395 19.9674 31.1631 20.389 30.8578 20.6956C30.5525 20.9831 30.1709 21.1939 29.732 20.9639C28.9306 20.5231 28.8161 20.9639 28.8161 21.6347C28.8161 22.7845 28.8352 23.9344 28.797 25.0842C28.7207 27.6906 31.0868 29.2812 32.7851 29.377C34.9986 29.5112 37.193 27.9014 37.4029 25.1801C37.4983 24.011 37.422 22.8228 37.4029 21.6347C37.4029 20.9447 37.1739 20.5998 36.4107 20.9831C35.8954 21.2322 35.4947 20.9256 35.1894 20.5231C34.865 20.1207 34.8841 19.6607 35.1894 19.2966C35.4947 18.9133 35.9145 18.7408 36.4488 18.9325C38.6242 19.6991 38.9485 20.1015 38.9295 22.4587C38.9104 24.0685 39.1012 25.7167 38.4524 27.269C37.7082 29.0129 36.4297 30.1819 34.617 30.6994C33.9491 30.891 33.7392 31.1976 33.7583 31.8684C33.8155 33.2291 33.7964 34.6089 33.7774 35.9887C33.7774 36.5828 33.7583 36.832 34.5979 36.6978C39.7118 35.9312 43.1275 33.0757 44.6922 28.2272C46.9438 21.1747 42.4214 13.7198 34.9795 12.5891C27.8429 11.4967 22.3664 16.1345 21.0688 22.3629C20.4391 25.3717 21.0116 28.2272 22.5191 30.891C22.8625 31.5043 23.2823 31.9067 24.0838 31.9067C25.1142 31.9259 25.9538 32.9224 25.9347 33.9573C25.9156 35.0305 24.9425 36.0462 23.8739 36.0654C22.8244 36.0845 21.6604 35.1647 21.813 34.1489C22.0039 32.9033 21.4123 32.0792 20.9162 31.121C16.8899 23.4169 20.7635 13.9881 29.026 11.4967C37.3647 8.98621 45.4173 14.5247 46.5813 22.5162C47.3064 27.4606 45.7798 31.6193 42.1925 34.973C40.0171 37.0044 37.3457 38.1351 34.3498 38.3651C32.2699 38.5184 32.2699 38.4801 32.2699 36.3337C32.2699 35.7588 32.2699 35.1838 32.2699 34.6089ZM24.6371 33.8806C24.6562 33.3249 24.3318 33.1907 23.8357 33.1907C23.2633 33.1716 22.9961 33.4782 23.0152 33.9765C23.0343 34.4172 23.3396 34.743 23.8166 34.7239C24.37 34.7047 24.599 34.3981 24.6371 33.8806Z" fill="#FEFEFE"/>
<path d="M24.637 33.8807C24.5989 34.3981 24.3699 34.7047 23.8356 34.7239C23.3395 34.7239 23.0342 34.4173 23.0342 33.9765C23.0151 33.4782 23.2822 33.1716 23.8547 33.1908C24.3317 33.2099 24.6561 33.3249 24.637 33.8807Z" fill="#EC359B"/>
<path d="M47.4972 32.4625C48.9855 29.7986 49.8442 26.7132 49.8442 23.4553C49.8442 13.2599 41.6199 5.00003 31.4684 5.00003C21.2978 4.98087 13.0735 13.2407 13.0735 23.4361C13.0735 33.6315 21.2978 41.8913 31.4493 41.8913C34.8077 41.8913 37.9753 40.9906 40.6849 39.4H47.4972V32.4625Z" stroke="black" stroke-width="2" stroke-miterlimit="10" stroke-linecap="round" stroke-linejoin="round"/>
</svg>
