<svg width="58" height="52" viewBox="0 0 58 52" fill="none" xmlns="http://www.w3.org/2000/svg">
<path d="M44.5584 7.92559L43.5683 11.3787C43.3751 12.0307 42.7956 12.6103 42.1436 12.8035C41.9746 12.8518 41.8297 12.8759 41.6606 12.8759H28.2344C27.4134 12.8759 26.9304 12.1998 27.1719 11.3787L28.162 7.92559C28.4035 7.10456 29.2486 6.42842 30.0697 6.42842H43.4959C44.3169 6.42842 44.7999 7.10456 44.5584 7.92559Z" fill="#1E549E"/>
<path d="M43.3994 24.7567L39.415 38.6176C38.8596 40.5736 36.8071 42.1432 34.8752 42.1432H18.8169C16.8609 42.1432 15.7501 40.5736 16.3055 38.6176L20.2416 24.9016C20.5314 23.8874 21.1351 22.9215 21.9803 22.1246L27.2204 17.126L28.1863 13.7694H41.6125C41.7815 13.7694 41.9506 13.7453 42.0955 13.697L41.0812 17.2226L43.2546 22.0521C43.6409 22.8249 43.6651 23.7666 43.3994 24.7567Z" fill="#EDE7E7"/>
<path d="M39.7531 36.6375H16.6677L20.3624 23.7666H43.4477L39.7531 36.6375Z" fill="#EC359B"/>
<path d="M28.9107 34.1019H25.9888C25.6508 34.1019 25.4576 33.8362 25.5542 33.4982L27.9931 24.9981C28.0897 24.66 28.4278 24.3944 28.7658 24.3944H31.6877C32.0258 24.3944 32.219 24.66 32.1224 24.9981L29.6835 33.4982C29.5869 33.8362 29.2488 34.1019 28.9107 34.1019Z" fill="white"/>
<path d="M23.5739 30.7212L24.4191 27.7993C24.5157 27.4612 24.8538 27.1956 25.1918 27.1956H33.6919C34.03 27.1956 34.2232 27.4612 34.1266 27.7993L33.2814 30.7212C33.1848 31.0593 32.8467 31.3249 32.5087 31.3249H24.0086C23.6705 31.3007 23.4773 31.0351 23.5739 30.7212Z" fill="white"/>
<path d="M40.405 12.0307H26.9788C26.1578 12.0307 25.6748 11.3546 25.9163 10.5336L26.9064 7.08042C27.1478 6.25939 27.993 5.58325 28.814 5.58325H42.2403C43.0613 5.58325 43.5443 6.25939 43.3028 7.08042L42.3369 10.5336C42.0954 11.3546 41.2261 12.0307 40.405 12.0307Z" stroke="black" stroke-width="1.5" stroke-miterlimit="10" stroke-linecap="round" stroke-linejoin="round"/>
<path d="M31.6394 15.2907H39.7048" stroke="black" stroke-width="1.5" stroke-miterlimit="10" stroke-linecap="round" stroke-linejoin="round"/>
<path d="M19.1309 22.849H42.2404" stroke="black" stroke-width="1.5" stroke-miterlimit="10" stroke-linecap="round" stroke-linejoin="round"/>
<path d="M15.4363 35.6957H38.5458" stroke="black" stroke-width="1.5" stroke-miterlimit="10" stroke-linecap="round" stroke-linejoin="round"/>
<path d="M26.8341 12.5862L26.0372 15.3873L20.773 20.3859C19.9278 21.1828 19.3241 22.1729 19.0343 23.1629L15.0982 36.8789C14.5428 38.8349 15.6536 40.4045 17.6096 40.4045H33.668C35.6239 40.4045 37.6524 38.8349 38.2078 36.8789L42.1922 23.0181C42.4819 22.028 42.4336 21.0862 42.0714 20.2893L39.8981 15.4598L40.7191 12.562" stroke="black" stroke-width="1.5" stroke-miterlimit="10" stroke-linecap="round" stroke-linejoin="round"/>
<path d="M29.8064 15.655C30.0786 15.4192 30.1575 15.0646 29.9829 14.863C29.8082 14.6615 29.446 14.6892 29.1739 14.925C28.9017 15.1609 28.8228 15.5154 28.9974 15.717C29.1721 15.9186 29.5343 15.8908 29.8064 15.655Z" fill="black"/>
<path d="M35.9859 36.2028L41.395 33.788L43.5442 43.4472L38.1351 45.8619C35.2856 47.1418 32.5086 46.1276 31.9532 43.6403L31.8083 43.0125C31.2529 40.5253 33.1365 37.4826 35.9859 36.2028Z" fill="#1E549E"/>
<path d="M42.3611 33.0636L47.7702 30.6488C50.6438 29.3689 53.3967 30.3831 53.9521 32.8704L54.097 33.4982C54.6524 35.9855 52.793 39.0522 49.9194 40.3321L44.5102 42.7469L42.3611 33.0636Z" fill="#EC359B"/>
<path d="M35.02 34.7297L40.4291 32.315L42.5783 41.9741L37.1692 44.3889C34.3197 45.6687 31.5427 44.6545 30.9873 42.1673L30.8424 41.5395C30.287 39.0522 32.1464 35.9854 35.02 34.7297Z" stroke="black" stroke-width="1.5" stroke-miterlimit="10" stroke-linecap="round" stroke-linejoin="round"/>
<path d="M40.4292 32.315L45.8383 29.9002C48.7119 28.6203 51.4648 29.6345 52.0202 32.1218L52.1651 32.7496C52.7205 35.2369 50.8611 38.3036 47.9875 39.5835L42.5784 41.9983L40.4292 32.315Z" stroke="black" stroke-width="1.5" stroke-miterlimit="10" stroke-linecap="round" stroke-linejoin="round"/>
<path d="M26.2785 8.79494H17.3438" stroke="black" stroke-width="1.5" stroke-miterlimit="10" stroke-linecap="round"/>
<path d="M19.9035 20.9896H10.9929" stroke="black" stroke-width="1.5" stroke-miterlimit="10" stroke-linecap="round"/>
<path d="M16.8609 29.2482H3" stroke="black" stroke-width="1.5" stroke-miterlimit="10" stroke-linecap="round"/>
<path d="M25.8197 15.822H5.05249" stroke="black" stroke-width="1.5" stroke-miterlimit="10" stroke-linecap="round"/>
</svg>
