<svg width="58" height="52" viewBox="0 0 58 52" fill="none" xmlns="http://www.w3.org/2000/svg">
<path d="M34.0359 32.3353H22.642C21.5371 32.3353 20.6394 31.4376 20.6394 30.3327V7.68288C20.6394 6.57802 21.5371 5.68031 22.642 5.68031H34.0129C35.1178 5.68031 36.0155 6.57802 36.0155 7.68288V30.3327C36.0155 31.4376 35.1408 32.3353 34.0359 32.3353Z" fill="#1E549E"/>
<path d="M36.0152 8.76476H20.6621V29.2739H36.0152V8.76476Z" fill="#EC359B"/>
<path d="M11.6623 32.7957L15.8977 28.5833C15.8977 28.5833 15.1611 25.1306 16.4271 21.1715C17.6931 17.2124 17.9923 15.9234 19.6036 16.0385C21.2148 16.1536 21.7903 19.3991 20.6624 23.4733C20.6624 23.4733 23.0793 26.88 22.0435 32.3123L30.6292 32.7726C30.6292 32.7726 29.9847 36.3404 22.7571 36.7318L19.6726 39.9773C19.6726 39.9773 17.0946 41.6346 17.0255 39.9773C16.9335 38.343 5.90781 38.4581 11.6623 32.7957Z" fill="#EDE7E7"/>
<path d="M28.5118 20.8263H26.6473C26.4402 20.8263 26.2791 20.6651 26.2791 20.458V15.0487C26.2791 14.8416 26.4402 14.6804 26.6473 14.6804H28.5118C28.719 14.6804 28.8801 14.8416 28.8801 15.0487V20.458C28.8801 20.6651 28.719 20.8263 28.5118 20.8263Z" fill="white"/>
<path d="M24.5066 18.6855V16.8211C24.5066 16.6139 24.6677 16.4528 24.8749 16.4528H30.2611C30.4683 16.4528 30.6294 16.6139 30.6294 16.8211V18.6855C30.6294 18.8927 30.4683 19.0538 30.2611 19.0538H24.8749C24.6677 19.0538 24.5066 18.8927 24.5066 18.6855Z" fill="white"/>
<path d="M28.6958 32.1051C28.4426 32.1051 28.2584 32.1051 28.0743 32.1051C25.9796 32.1051 23.885 32.1051 21.7673 32.1051C21.5141 32.1051 21.399 32.1511 21.353 32.4273C21.2839 32.9798 21.0307 33.1869 20.6855 33.1179C20.3862 33.0718 20.2021 32.7726 20.2942 32.2202C20.7315 29.6882 20.6164 27.1792 19.7187 24.7623C19.5346 24.2329 19.3044 23.7495 19.0052 23.2661C18.8901 23.059 18.821 22.8518 18.9361 22.6677C19.3274 21.9541 19.4195 21.1945 19.4885 20.4119C19.6266 19.0308 19.6497 17.6727 19.3504 16.2917C19.1663 15.509 18.5678 15.2098 17.7852 15.486C17.4629 15.6011 17.2328 15.8313 17.1637 16.1536C16.8645 17.7188 16.266 19.1689 15.7826 20.6881C15.1381 22.7137 14.8389 24.7623 14.8389 26.88C14.8389 27.3403 14.7238 27.6856 14.4015 28.0309C13.78 28.6754 13.2046 29.3659 12.6061 30.0104C12.3759 30.2636 12.0767 30.3097 11.8465 30.1255C11.6163 29.9414 11.5703 29.7112 11.6854 29.458C11.7314 29.3659 11.8235 29.2739 11.8926 29.1818C12.445 28.5603 13.0205 27.9158 13.5729 27.2943C13.665 27.2022 13.757 27.1102 13.734 26.949C13.711 24.0718 14.3095 21.3326 15.2992 18.6625C15.6215 17.7878 15.8747 16.8901 16.0819 15.9694C16.312 14.8876 17.3709 14.197 18.4757 14.3581C18.844 14.4042 18.844 14.2891 18.844 13.9899C18.844 11.5499 18.8901 9.11002 18.821 6.6701C18.775 4.92072 20.2021 4 21.4681 4C25.2431 4 29.018 4 32.816 4C34.1741 4 35.5321 4.98978 35.4631 6.6701C35.4171 8.05118 35.4631 9.45529 35.4631 10.8364C35.4631 10.9054 35.4631 10.9745 35.4861 11.0896C35.9925 10.7443 36.4989 10.5832 37.0744 10.6752C37.926 10.8134 38.5936 11.3888 38.8007 12.2175C39.0079 13.0921 38.7777 13.8287 38.0641 14.3812C37.3045 14.9796 36.4989 15.5321 35.7163 16.1075C35.6703 16.1536 35.6012 16.1996 35.5552 16.2226C35.4171 16.3147 35.4401 16.4528 35.4861 16.5679C35.5091 16.683 35.6472 16.6369 35.7163 16.6369C36.8902 16.66 37.7189 17.3505 37.88 18.4554C37.949 19.0078 37.8109 19.5142 37.4887 19.9515C37.3736 20.0896 37.3736 20.1587 37.5117 20.2968C38.2943 21.1024 38.3634 22.1383 37.7189 23.036C37.6268 23.1741 37.5808 23.2431 37.7419 23.3812C38.3634 24.0027 38.5475 24.7393 38.2483 25.5449C37.9721 26.3736 37.3506 26.8339 36.4989 26.926C36.2457 26.949 36.0155 26.9721 35.7623 26.9721C35.5552 26.9721 35.4631 27.0411 35.4861 27.2713C35.5091 27.9618 35.4631 28.6524 35.5091 29.3429C35.6012 30.9542 34.3352 32.036 32.862 32.036C31.9643 32.036 31.0897 32.036 30.1919 32.036C30.0078 32.036 29.8927 32.0821 29.8237 32.2892C29.5935 32.8877 29.2482 33.3941 28.7648 33.8084C26.9694 35.3046 24.9668 36.2714 22.5499 36.1102C22.0666 36.0872 21.7673 36.2253 21.4681 36.5706C21.1228 36.9849 20.7315 37.3532 20.3402 37.7445C20.064 38.0207 19.7648 38.0438 19.5346 37.8136C19.3044 37.5834 19.3044 37.2842 19.5576 37.0079C20.133 36.3865 20.7315 35.788 21.307 35.1665C21.5602 34.8903 21.8594 34.9823 22.1586 35.0054C23.2175 35.1205 24.2763 35.0284 25.2891 34.6371C26.1868 34.2918 27.0155 33.8314 27.775 33.233C28.1203 32.9798 28.4426 32.6345 28.6958 32.1051ZM34.3812 17.972C34.3812 14.7725 34.3812 11.573 34.3812 8.35042C34.3812 8.09722 34.3352 8.00515 34.059 8.00515C29.4554 8.00515 24.8748 8.00515 20.2712 8.00515C19.9719 8.00515 19.9259 8.09722 19.9259 8.37344C19.9259 10.33 19.9259 12.3095 19.9259 14.2661C19.9259 14.6804 19.9489 15.0947 20.1791 15.463C20.2711 15.6241 20.3402 15.8313 20.3632 16.0385C20.8236 18.2712 20.7315 20.481 20.087 22.6677C20.041 22.8058 20.018 22.9209 20.11 23.059C20.8926 24.4861 21.307 26.0513 21.4911 27.6626C21.5141 27.9158 21.6062 27.9618 21.8364 27.9618C25.9106 27.9618 29.9618 27.9618 34.036 27.9618C34.3122 27.9618 34.3812 27.8928 34.3812 27.6166C34.3812 24.394 34.3812 21.1945 34.3812 17.972ZM28.0282 29.0207C26.0027 29.0207 24.0001 29.0207 21.9745 29.0207C21.6753 29.0207 21.6062 29.1127 21.6062 29.412C21.6292 29.8493 21.6062 30.2867 21.5832 30.724C21.5602 30.9772 21.6292 31.0463 21.8824 31.0463C25.5193 31.0463 29.1561 31.0463 32.77 31.0463C33.8518 31.0463 34.4043 30.4708 34.4043 29.389C34.4043 29.1127 34.3352 29.0207 34.059 29.0207C32.0334 29.0207 30.0308 29.0207 28.0282 29.0207ZM27.1536 6.94632C28.3045 6.94632 29.4554 6.94632 30.6063 6.94632C31.7802 6.94632 32.9541 6.94632 34.128 6.94632C34.2431 6.94632 34.3812 7.01537 34.4043 6.80821C34.4963 6.23275 34.2662 5.68032 33.7598 5.38109C33.4375 5.17392 33.0692 5.12789 32.7009 5.12789C29.9387 5.12789 27.1766 5.12789 24.4144 5.12789C23.4246 5.12789 22.4579 5.12789 21.4681 5.12789C20.5243 5.1509 19.9719 5.72636 19.9489 6.62406C19.9489 6.90028 20.018 6.96933 20.2942 6.96933C22.573 6.94632 24.8518 6.94632 27.1536 6.94632ZM35.4631 15.0026C36.1536 14.4962 36.7981 14.0359 37.3966 13.5755C37.7419 13.2993 37.834 12.931 37.7419 12.5167C37.6498 12.1254 37.3045 11.8492 36.8902 11.8031C36.5219 11.7571 35.6012 12.3095 35.4631 12.6548C35.4631 12.6778 35.4631 12.7008 35.4631 12.7239C35.4631 13.4374 35.4631 14.174 35.4631 15.0026ZM35.4631 24.9695C35.4861 24.9695 35.4861 24.9695 35.4631 24.9695C35.4861 25.2917 35.4861 25.591 35.4861 25.9132C35.4861 25.9362 35.5321 25.9593 35.5552 25.9593C35.8774 25.9593 36.1997 25.9593 36.5219 25.8902C36.9593 25.7751 37.2815 25.3838 37.2815 24.9234C37.2815 24.4861 37.0053 24.0948 36.568 23.9567C36.1997 23.8416 35.8084 23.8876 35.5091 24.0257C35.348 24.0948 35.4631 24.4861 35.4631 24.7393C35.4631 24.8084 35.4631 24.9004 35.4631 24.9695ZM35.4631 21.862C35.4631 21.9771 35.4631 22.0922 35.4631 22.2073C35.4631 22.9209 35.6012 23.0129 36.2917 22.8058C36.7751 22.6677 37.0513 22.2764 37.0283 21.77C37.0053 21.3096 36.66 20.9183 36.1997 20.8492C35.6242 20.7342 35.4631 20.8723 35.4631 21.4477C35.4631 21.5858 35.4631 21.7239 35.4631 21.862ZM35.4631 18.7546C35.4631 19.0308 35.4631 19.284 35.4631 19.5602C35.4631 19.6293 35.4171 19.7444 35.5782 19.7444C35.9695 19.7444 36.3378 19.6983 36.591 19.33C36.8212 18.9848 36.8672 18.6165 36.66 18.2482C36.4529 17.8799 36.1306 17.7188 35.7163 17.7188C35.5321 17.7188 35.4171 17.7648 35.4401 17.972C35.4861 18.2712 35.4631 18.5244 35.4631 18.7546Z" fill="black"/>
<path d="M46.1433 47.8494C42.9899 49.3226 40.0435 47.7113 38.7545 46.8827C38.9617 46.7215 38.1791 45.9389 38.041 45.6167C37.8568 45.2254 37.6727 44.8341 37.4885 44.4427C37.3734 44.1665 37.1893 44.0054 36.9131 43.8903C35.9003 43.453 34.8875 43.0156 33.8517 42.5783C33.6445 42.4862 33.4604 42.3711 33.2992 42.21C31.2967 40.2535 29.2711 38.2739 27.2685 36.3174C27.1074 36.1562 26.9693 35.9951 26.8772 35.7879C26.7621 35.5347 26.8312 35.3736 27.0844 35.2585C27.5217 35.0514 28.0051 35.0283 28.4654 35.1434C29.3862 35.3506 30.1918 35.7879 30.9744 36.2943C31.4808 36.6166 31.9642 36.9849 32.4476 37.3762C32.8389 37.6754 33.3453 37.6294 33.4834 37.2151C33.6675 36.7317 33.8056 36.2253 33.5294 35.6729C32.2174 32.9567 30.9744 30.2406 29.6854 27.5244C29.1099 26.3045 28.5345 25.0615 27.959 23.8416C27.7749 23.4502 27.7979 23.0359 28.0972 22.6906C28.3503 22.3914 28.7186 22.3454 29.0869 22.4144C29.4322 22.4835 29.6624 22.6906 29.8235 23.0129C31.1125 25.7521 32.4015 28.4912 33.6905 31.2304C34.0128 31.9209 34.3351 32.5884 34.6573 33.279C34.8414 33.6473 35.1867 33.7624 35.532 33.6242C35.8542 33.4861 35.9924 33.1639 35.8542 32.8186C35.8312 32.7265 35.7852 32.6575 35.7392 32.5654C35.2558 31.5296 34.7724 30.4938 34.312 29.458C34.0588 28.8825 34.266 28.3301 34.8184 28.1229C35.3479 27.9158 35.9233 28.1229 36.1995 28.6984C36.7289 29.7802 37.2353 30.8621 37.7417 31.9669C38.041 32.5884 38.3172 32.7726 38.7315 32.5884C39.1689 32.4273 39.2149 32.082 38.9157 31.4605C38.6164 30.816 38.3172 30.1945 38.041 29.55C37.7648 28.9286 37.9719 28.3991 38.5243 28.169C39.0768 27.9388 39.6522 28.169 39.9284 28.7674C40.3658 29.6881 40.8031 30.6089 41.2405 31.5296C41.4476 31.9439 41.7699 32.105 42.1382 31.9669C42.5065 31.8288 42.6216 31.4605 42.4374 31.0462C42.1842 30.4938 41.931 29.9644 41.6778 29.4119C41.5858 29.2278 41.5397 29.0206 41.6088 28.8135C41.7239 28.3991 42.0691 28.0999 42.5065 28.0539C42.9438 28.0078 43.3581 28.215 43.5653 28.6523C44.8083 31.2764 46.0282 33.9235 47.2942 36.5245C47.5935 37.169 47.7316 37.7905 47.6395 38.458C47.5935 38.8263 47.6165 39.1946 47.5474 39.5629C47.3633 40.4376 47.9157 41.1051 48.261 41.8417C48.3531 42.0489 48.6753 42.8085 48.9055 42.7854C49.1357 44.0745 49.1817 46.4223 46.1433 47.8494Z" fill="#EDE7E7"/>
<path d="M47.8006 41.1052C47.6625 40.7599 47.5244 40.4376 47.3863 40.0924C47.3403 39.9543 47.2712 39.8392 47.2942 39.7011C47.3403 38.9645 47.3863 38.2279 47.4323 37.4913C47.4554 37.1691 47.4093 36.8928 47.2712 36.6166C46.0282 33.7854 44.7853 30.9542 43.5423 28.123C42.8978 26.6728 41.1254 26.2815 39.9975 27.3864C39.8133 27.5705 39.7213 27.5245 39.5601 27.3864C38.6855 26.5807 37.4425 26.5807 36.6138 27.4094C36.4067 27.6166 36.3376 27.5475 36.1535 27.3864C35.3018 26.5577 34.0818 26.5577 33.1841 27.3403C33.1151 27.3864 33.069 27.4784 32.954 27.4784C32.2404 25.8442 31.5268 24.2329 30.8363 22.5986C30.422 21.6549 29.5703 21.0794 28.6035 21.1485C27.6598 21.2175 26.9232 21.839 26.67 22.7828C26.5319 23.3582 26.647 23.8876 26.8772 24.417C28.0281 26.9951 29.156 29.5731 30.2839 32.1511C30.7212 33.1639 31.1585 34.1537 31.5959 35.1665C31.5729 35.1895 31.5499 35.2125 31.5499 35.2125C31.4578 35.1435 31.3427 35.0744 31.2276 35.0054C30.468 34.499 29.6854 34.0616 28.8107 33.8314C28.0281 33.6243 27.2455 33.6473 26.5089 34.0156C25.7263 34.4299 25.4501 35.1665 25.7493 35.9721C25.8874 36.3404 26.0946 36.6396 26.3708 36.9159C26.9232 37.4913 27.4756 38.0668 28.0281 38.6422C28.0971 38.7113 28.8567 39.4248 29.6393 40.2995L29.6624 40.3225C30.0537 40.7369 30.468 41.1052 30.8133 41.5425C31.78 42.7394 32.954 43.5911 34.4041 44.0745C35.2788 44.3507 35.9003 44.8341 36.1535 45.7778C36.2686 46.1922 36.6138 46.3072 36.9591 46.1691C37.3044 46.031 37.4195 45.6858 37.2353 45.2944C37.0742 44.9031 36.89 44.5118 36.7289 44.1205C36.6138 43.8673 36.4527 43.6832 36.1995 43.5681C35.2558 43.1538 34.312 42.6934 33.3683 42.2791C33.1611 42.187 33 42.0719 32.8619 41.9108C30.9974 39.9543 29.133 38.0207 27.2685 36.0642C27.1304 35.9031 26.9923 35.7419 26.9002 35.5348C26.7851 35.2816 26.8542 35.1205 27.0843 35.0284C27.4987 34.8212 27.936 34.7982 28.3734 34.9133C29.225 35.1205 29.9846 35.5578 30.6982 36.0412C31.1816 36.3634 31.6189 36.7317 32.0563 37.1C32.4015 37.3992 32.8849 37.3532 33.023 36.9389C33.2072 36.4555 33.3222 35.9721 33.069 35.4197C31.8721 32.7266 30.6982 30.0335 29.5012 27.3403C28.9718 26.1204 28.4424 24.9004 27.913 23.7035C27.7519 23.3122 27.7519 22.9209 28.0511 22.5756C28.3043 22.2994 28.6266 22.2303 28.9718 22.2994C29.2941 22.3684 29.5243 22.5756 29.6624 22.8978C30.8593 25.614 32.0563 28.3301 33.2532 31.0463C33.5524 31.7138 33.8517 32.4043 34.1509 33.0718C34.312 33.4171 34.6343 33.5552 34.9565 33.4171C35.2558 33.279 35.3709 32.9798 35.2558 32.6115C35.2327 32.5194 35.1867 32.4504 35.1407 32.3813C34.7033 31.3685 34.243 30.3327 33.8056 29.3199C33.5754 28.7444 33.7826 28.192 34.266 27.9848C34.7724 27.7777 35.3018 27.9848 35.555 28.5603C36.0384 29.6421 36.5218 30.701 36.9821 31.7828C37.2583 32.3813 37.5115 32.5654 37.9028 32.4043C38.2942 32.2432 38.3402 31.8979 38.087 31.2764C37.8108 30.6549 37.5346 30.0104 37.2583 29.389C37.0051 28.7905 37.1893 28.238 37.6957 28.0079C38.2021 27.7777 38.7315 28.0079 39.0077 28.6063C39.422 29.5271 39.8133 30.4478 40.2277 31.3455C40.4118 31.7598 40.7111 31.9209 41.0563 31.7828C41.4016 31.6447 41.5167 31.2764 41.3325 30.8621C41.1024 30.3097 40.8722 29.7803 40.642 29.2508C40.5729 29.0667 40.5269 28.8826 40.5729 28.6754C40.665 28.2611 40.9873 27.9848 41.4246 27.9158C41.8389 27.8698 42.2302 28.0769 42.4144 28.5143C43.5653 31.1153 44.6932 33.7163 45.8671 36.3174C46.1433 36.9389 46.2814 37.5604 46.1894 38.2279C46.1433 38.5962 46.1894 38.9645 46.0973 39.3097C45.9131 40.1844 46.4426 40.852 46.7418 41.5655C46.8569 41.8417 47.2482 41.9108 47.5014 41.7727C47.8006 41.6806 47.9157 41.4274 47.8006 41.1052Z" fill="black"/>
</svg>
