<svg width="58" height="52" viewBox="0 0 58 52" fill="none" xmlns="http://www.w3.org/2000/svg">
<path d="M10.6104 18.2472L11.4666 10.0132C11.6331 8.42622 13.084 7.27622 14.749 7.41422L52.758 11.1632C54.3992 11.3242 55.5884 12.7272 55.4457 14.3372L53.1385 36.3482C52.972 37.9352 51.5211 39.0852 49.8562 38.9472L48.548 38.8092" fill="#1E549E"/>
<path d="M45.5274 45.9392H7.30433C5.66314 45.9392 4.30737 44.6512 4.30737 43.0412V20.9152C4.30737 19.3282 5.63935 18.0172 7.30433 18.0172H45.5036C47.1448 18.0172 48.5005 19.3052 48.5005 20.9152V43.0642C48.5243 44.6512 47.1923 45.9392 45.5274 45.9392Z" fill="white"/>
<path d="M48.429 24.3882H4.23584V40.4192H48.429V24.3882Z" fill="#EC359B"/>
<path d="M27.593 36.5092H25.0479C24.7625 36.5092 24.5247 36.2792 24.5247 36.0032V28.8042C24.5247 28.5282 24.7625 28.2982 25.0479 28.2982H27.593C27.8784 28.2982 28.1162 28.5282 28.1162 28.8042V36.0032C28.1162 36.2792 27.8784 36.5092 27.593 36.5092Z" fill="white"/>
<path d="M22.0747 33.6572V31.1962C22.0747 30.9202 22.3126 30.6902 22.598 30.6902H30.0428C30.3282 30.6902 30.5661 30.9202 30.5661 31.1962V33.6572C30.5661 33.9332 30.3282 34.1632 30.0428 34.1632H22.598C22.3126 34.1632 22.0747 33.9332 22.0747 33.6572Z" fill="white"/>
<path d="M2.49951 22.8702H46.1932" stroke="black" stroke-width="2" stroke-miterlimit="10" stroke-linecap="round" stroke-linejoin="round"/>
<path d="M2.49951 39.6372H46.1932" stroke="black" stroke-width="2" stroke-miterlimit="10" stroke-linecap="round" stroke-linejoin="round"/>
<path d="M43.22 44.7662H4.99695C3.35576 44.7662 2 43.4782 2 41.8682V19.7422C2 18.1552 3.33198 16.8442 4.99695 16.8442H43.1962C44.8374 16.8442 46.1932 18.1322 46.1932 19.7422V41.8912C46.1932 43.4782 44.8612 44.7662 43.22 44.7662Z" stroke="black" stroke-width="2" stroke-miterlimit="10"/>
<path d="M8.30322 16.8442L9.1595 8.61022C9.32599 7.02322 10.7769 5.87322 12.4419 6.01122L50.4509 9.73722C52.092 9.89822 53.2813 11.3012 53.1386 12.9112L50.8314 34.9222C50.6649 36.5092 49.214 37.6592 47.549 37.5212L46.2408 37.3832" stroke="black" stroke-width="2" stroke-miterlimit="10"/>
</svg>
