<svg width="144" height="37" viewBox="0 0 144 37" fill="none" xmlns="http://www.w3.org/2000/svg">
<rect width="144" height="37" rx="18.5" fill="#235A9A"/>
<path d="M30.472 25.126C29.632 25.126 28.876 24.982 28.204 24.694C27.532 24.394 27.004 23.974 26.62 23.434C26.236 22.894 26.044 22.264 26.044 21.544H28.24C28.288 22.084 28.498 22.528 28.87 22.876C29.254 23.224 29.788 23.398 30.472 23.398C31.18 23.398 31.732 23.23 32.128 22.894C32.524 22.546 32.722 22.102 32.722 21.562C32.722 21.142 32.596 20.8 32.344 20.536C32.104 20.272 31.798 20.068 31.426 19.924C31.066 19.78 30.562 19.624 29.914 19.456C29.098 19.24 28.432 19.024 27.916 18.808C27.412 18.58 26.98 18.232 26.62 17.764C26.26 17.296 26.08 16.672 26.08 15.892C26.08 15.172 26.26 14.542 26.62 14.002C26.98 13.462 27.484 13.048 28.132 12.76C28.78 12.472 29.53 12.328 30.382 12.328C31.594 12.328 32.584 12.634 33.352 13.246C34.132 13.846 34.564 14.674 34.648 15.73H32.38C32.344 15.274 32.128 14.884 31.732 14.56C31.336 14.236 30.814 14.074 30.166 14.074C29.578 14.074 29.098 14.224 28.726 14.524C28.354 14.824 28.168 15.256 28.168 15.82C28.168 16.204 28.282 16.522 28.51 16.774C28.75 17.014 29.05 17.206 29.41 17.35C29.77 17.494 30.262 17.65 30.886 17.818C31.714 18.046 32.386 18.274 32.902 18.502C33.43 18.73 33.874 19.084 34.234 19.564C34.606 20.032 34.792 20.662 34.792 21.454C34.792 22.09 34.618 22.69 34.27 23.254C33.934 23.818 33.436 24.274 32.776 24.622C32.128 24.958 31.36 25.126 30.472 25.126ZM41.5153 25.162C40.5793 25.162 39.7333 24.952 38.9773 24.532C38.2213 24.1 37.6273 23.5 37.1953 22.732C36.7633 21.952 36.5473 21.052 36.5473 20.032C36.5473 19.024 36.7693 18.13 37.2133 17.35C37.6573 16.57 38.2633 15.97 39.0313 15.55C39.7993 15.13 40.6573 14.92 41.6053 14.92C42.5533 14.92 43.4113 15.13 44.1793 15.55C44.9473 15.97 45.5533 16.57 45.9973 17.35C46.4413 18.13 46.6633 19.024 46.6633 20.032C46.6633 21.04 46.4353 21.934 45.9793 22.714C45.5233 23.494 44.8993 24.1 44.1073 24.532C43.3273 24.952 42.4633 25.162 41.5153 25.162ZM41.5153 23.38C42.0433 23.38 42.5353 23.254 42.9913 23.002C43.4593 22.75 43.8373 22.372 44.1253 21.868C44.4133 21.364 44.5573 20.752 44.5573 20.032C44.5573 19.312 44.4193 18.706 44.1433 18.214C43.8673 17.71 43.5013 17.332 43.0453 17.08C42.5893 16.828 42.0973 16.702 41.5693 16.702C41.0413 16.702 40.5493 16.828 40.0933 17.08C39.6493 17.332 39.2953 17.71 39.0313 18.214C38.7673 18.706 38.6353 19.312 38.6353 20.032C38.6353 21.1 38.9053 21.928 39.4453 22.516C39.9973 23.092 40.6873 23.38 41.5153 23.38ZM57.6738 15.082V25H55.6218V23.83C55.2978 24.238 54.8718 24.562 54.3438 24.802C53.8278 25.03 53.2758 25.144 52.6878 25.144C51.9078 25.144 51.2058 24.982 50.5818 24.658C49.9698 24.334 49.4838 23.854 49.1238 23.218C48.7758 22.582 48.6018 21.814 48.6018 20.914V15.082H50.6358V20.608C50.6358 21.496 50.8578 22.18 51.3018 22.66C51.7458 23.128 52.3518 23.362 53.1198 23.362C53.8878 23.362 54.4938 23.128 54.9378 22.66C55.3938 22.18 55.6218 21.496 55.6218 20.608V15.082H57.6738ZM63.9813 25.162C63.2013 25.162 62.4993 25.024 61.8753 24.748C61.2633 24.46 60.7773 24.076 60.4173 23.596C60.0573 23.104 59.8653 22.558 59.8413 21.958H61.9653C62.0013 22.378 62.1993 22.732 62.5593 23.02C62.9313 23.296 63.3933 23.434 63.9453 23.434C64.5213 23.434 64.9653 23.326 65.2773 23.11C65.6013 22.882 65.7633 22.594 65.7633 22.246C65.7633 21.874 65.5833 21.598 65.2233 21.418C64.8753 21.238 64.3173 21.04 63.5493 20.824C62.8053 20.62 62.1993 20.422 61.7313 20.23C61.2633 20.038 60.8553 19.744 60.5073 19.348C60.1713 18.952 60.0033 18.43 60.0033 17.782C60.0033 17.254 60.1593 16.774 60.4713 16.342C60.7833 15.898 61.2273 15.55 61.8033 15.298C62.3913 15.046 63.0633 14.92 63.8193 14.92C64.9473 14.92 65.8533 15.208 66.5373 15.784C67.2333 16.348 67.6053 17.122 67.6533 18.106H65.6013C65.5653 17.662 65.3853 17.308 65.0613 17.044C64.7373 16.78 64.2993 16.648 63.7473 16.648C63.2073 16.648 62.7933 16.75 62.5053 16.954C62.2173 17.158 62.0733 17.428 62.0733 17.764C62.0733 18.028 62.1693 18.25 62.3613 18.43C62.5533 18.61 62.7873 18.754 63.0633 18.862C63.3393 18.958 63.7473 19.084 64.2873 19.24C65.0073 19.432 65.5953 19.63 66.0513 19.834C66.5193 20.026 66.9213 20.314 67.2573 20.698C67.5933 21.082 67.7673 21.592 67.7793 22.228C67.7793 22.792 67.6233 23.296 67.3113 23.74C66.9993 24.184 66.5553 24.532 65.9793 24.784C65.4153 25.036 64.7493 25.162 63.9813 25.162ZM69.3125 20.032C69.3125 19.012 69.5165 18.118 69.9245 17.35C70.3445 16.57 70.9205 15.97 71.6525 15.55C72.3845 15.13 73.2245 14.92 74.1725 14.92C75.3725 14.92 76.3625 15.208 77.1425 15.784C77.9345 16.348 78.4685 17.158 78.7445 18.214H76.5305C76.3505 17.722 76.0625 17.338 75.6665 17.062C75.2705 16.786 74.7725 16.648 74.1725 16.648C73.3325 16.648 72.6605 16.948 72.1565 17.548C71.6645 18.136 71.4185 18.964 71.4185 20.032C71.4185 21.1 71.6645 21.934 72.1565 22.534C72.6605 23.134 73.3325 23.434 74.1725 23.434C75.3605 23.434 76.1465 22.912 76.5305 21.868H78.7445C78.4565 22.876 77.9165 23.68 77.1245 24.28C76.3325 24.868 75.3485 25.162 74.1725 25.162C73.2245 25.162 72.3845 24.952 71.6525 24.532C70.9205 24.1 70.3445 23.5 69.9245 22.732C69.5165 21.952 69.3125 21.052 69.3125 20.032ZM84.3895 25.162C83.6095 25.162 82.9075 25.024 82.2835 24.748C81.6715 24.46 81.1855 24.076 80.8255 23.596C80.4655 23.104 80.2735 22.558 80.2495 21.958H82.3735C82.4095 22.378 82.6075 22.732 82.9675 23.02C83.3395 23.296 83.8015 23.434 84.3535 23.434C84.9295 23.434 85.3735 23.326 85.6855 23.11C86.0095 22.882 86.1715 22.594 86.1715 22.246C86.1715 21.874 85.9915 21.598 85.6315 21.418C85.2835 21.238 84.7255 21.04 83.9575 20.824C83.2135 20.62 82.6075 20.422 82.1395 20.23C81.6715 20.038 81.2635 19.744 80.9155 19.348C80.5795 18.952 80.4115 18.43 80.4115 17.782C80.4115 17.254 80.5675 16.774 80.8795 16.342C81.1915 15.898 81.6355 15.55 82.2115 15.298C82.7995 15.046 83.4715 14.92 84.2275 14.92C85.3555 14.92 86.2615 15.208 86.9455 15.784C87.6415 16.348 88.0135 17.122 88.0615 18.106H86.0095C85.9735 17.662 85.7935 17.308 85.4695 17.044C85.1455 16.78 84.7075 16.648 84.1555 16.648C83.6155 16.648 83.2015 16.75 82.9135 16.954C82.6255 17.158 82.4815 17.428 82.4815 17.764C82.4815 18.028 82.5775 18.25 82.7695 18.43C82.9615 18.61 83.1955 18.754 83.4715 18.862C83.7475 18.958 84.1555 19.084 84.6955 19.24C85.4155 19.432 86.0035 19.63 86.4595 19.834C86.9275 20.026 87.3295 20.314 87.6655 20.698C88.0015 21.082 88.1755 21.592 88.1875 22.228C88.1875 22.792 88.0315 23.296 87.7195 23.74C87.4075 24.184 86.9635 24.532 86.3875 24.784C85.8235 25.036 85.1575 25.162 84.3895 25.162ZM92.4567 16.522C92.7567 16.018 93.1527 15.628 93.6447 15.352C94.1487 15.064 94.7427 14.92 95.4267 14.92V17.044H94.9047C94.1007 17.044 93.4887 17.248 93.0687 17.656C92.6607 18.064 92.4567 18.772 92.4567 19.78V25H90.4047V15.082H92.4567V16.522ZM98.3569 13.768C97.9849 13.768 97.6729 13.642 97.4209 13.39C97.1689 13.138 97.0429 12.826 97.0429 12.454C97.0429 12.082 97.1689 11.77 97.4209 11.518C97.6729 11.266 97.9849 11.14 98.3569 11.14C98.7169 11.14 99.0229 11.266 99.2749 11.518C99.5269 11.77 99.6529 12.082 99.6529 12.454C99.6529 12.826 99.5269 13.138 99.2749 13.39C99.0229 13.642 98.7169 13.768 98.3569 13.768ZM99.3649 15.082V25H97.3129V15.082H99.3649ZM104.111 16.522C104.411 16.018 104.807 15.628 105.299 15.352C105.803 15.064 106.397 14.92 107.081 14.92V17.044H106.559C105.755 17.044 105.143 17.248 104.723 17.656C104.315 18.064 104.111 18.772 104.111 19.78V25H102.059V15.082H104.111V16.522ZM118.057 19.798C118.057 20.17 118.033 20.506 117.985 20.806H110.407C110.467 21.598 110.761 22.234 111.289 22.714C111.817 23.194 112.465 23.434 113.233 23.434C114.337 23.434 115.117 22.972 115.573 22.048H117.787C117.487 22.96 116.941 23.71 116.149 24.298C115.369 24.874 114.397 25.162 113.233 25.162C112.285 25.162 111.433 24.952 110.677 24.532C109.933 24.1 109.345 23.5 108.913 22.732C108.493 21.952 108.283 21.052 108.283 20.032C108.283 19.012 108.487 18.118 108.895 17.35C109.315 16.57 109.897 15.97 110.641 15.55C111.397 15.13 112.261 14.92 113.233 14.92C114.169 14.92 115.003 15.124 115.735 15.532C116.467 15.94 117.037 16.516 117.445 17.26C117.853 17.992 118.057 18.838 118.057 19.798ZM115.915 19.15C115.903 18.394 115.633 17.788 115.105 17.332C114.577 16.876 113.923 16.648 113.143 16.648C112.435 16.648 111.829 16.876 111.325 17.332C110.821 17.776 110.521 18.382 110.425 19.15H115.915Z" fill="white"/>
</svg>
